<svg width="104" height="40" viewBox="0 0 104 40" fill="none" xmlns="http://www.w3.org/2000/svg">
<g clip-path="url(#clip0_152_194)">
<path d="M34.0711 7.26517H11.3571C8.40551 7.26517 6.0127 9.65798 6.0127 12.6096V26.6388H39.4156V12.6096C39.4156 9.65798 37.0228 7.26517 34.0711 7.26517Z" fill="#CF442B"/>
<path d="M14.0293 7.26517H11.3571C8.40551 7.26517 6.0127 9.65798 6.0127 12.6096V26.6388H8.68496V12.6096C8.68488 9.65798 11.0777 7.26517 14.0293 7.26517Z" fill="#B83C26"/>
<path d="M20.7097 13.2776H0.667969V26.6388H20.7097V13.2776Z" fill="white"/>
<path d="M10.6888 23.2985L0.667969 15.2819V13.2776H20.7098V15.2819L10.6888 23.2985Z" fill="#EBEBEC"/>
<path d="M10.6888 21.2944L0.667969 13.2776H20.7098L10.6888 21.2944Z" fill="white"/>
<path d="M34.0711 7.26517H14.0293C16.9809 7.26517 19.3737 9.65798 19.3737 12.6096V26.6388H39.4155V12.6096C39.4155 9.65798 37.0227 7.26517 34.0711 7.26517Z" fill="#F58F6C"/>
<path d="M24.5337 26.6388H16.6807V39.332H24.5337V26.6388Z" fill="#88898E"/>
<path d="M27.4368 26.6388H24.05V39.332H27.4368V26.6388Z" fill="#C3C4C6"/>
<path d="M3.34033 35.3236H16.7015L19.3737 26.6388H6.01252L3.34033 35.3236Z" fill="#F07B52"/>
<path d="M28.7265 16.618C30.2023 16.618 31.3987 15.4216 31.3987 13.9457C31.3987 12.4699 30.2023 11.2734 28.7265 11.2734C27.2506 11.2734 26.0542 12.4699 26.0542 13.9457C26.0542 15.4216 27.2506 16.618 28.7265 16.618Z" fill="#FDD042"/>
<path d="M28.7265 15.2818C29.4644 15.2818 30.0626 14.6836 30.0626 13.9457C30.0626 13.2078 29.4644 12.6096 28.7265 12.6096C27.9886 12.6096 27.3904 13.2078 27.3904 13.9457C27.3904 14.6836 27.9886 15.2818 28.7265 15.2818Z" fill="#E1A527"/>
<path d="M34.071 0.584534H28.7266V3.2568H34.071V0.584534Z" fill="#FDD042"/>
<path d="M39.3737 15.2401C39.7196 15.2401 40 14.9598 40 14.6137V12.6096C40 9.31734 37.3633 6.68063 34.071 6.68063H29.3111V3.92484H34.071C34.417 3.92484 34.6555 3.60273 34.6555 3.2568V0.584531C34.6555 0.238594 34.417 0 34.071 0H28.7266C28.3806 0 28.0585 0.238594 28.0585 0.584531V6.68055H11.357C8.06477 6.68055 5.34453 9.31727 5.34453 12.6095V12.693H0.668047C0.327891 12.693 0 12.9374 0 13.2776V26.6388C0 26.9847 0.322187 27.3068 0.668047 27.3068H5.16453L2.74164 35.181C2.61977 35.5773 2.92594 35.9916 3.34031 35.9916H16.0334V39.3319C16.0334 39.6778 16.3556 39.9999 16.7015 39.9999H27.3904C27.7363 39.9999 27.9749 39.6778 27.9749 39.3319V27.3069H39.4154C39.7613 27.3069 39.9999 26.9848 39.9999 26.6388V17.286C39.9999 16.9401 39.7196 16.6597 39.3736 16.6597C39.0276 16.6597 38.7473 16.94 38.7473 17.286V26.0543H19.9583V12.6096C19.9583 10.6924 19.0907 9.01883 17.6819 7.9332H28.0585V10.7076C26.5554 11.0011 25.4072 12.3411 25.4072 13.9457C25.4072 15.7645 26.8973 17.2442 28.7162 17.2442C30.535 17.2442 31.9991 15.7645 31.9991 13.9457C31.9991 12.341 30.8977 11.0011 29.3111 10.7076V7.9332H34.071C36.6726 7.9332 38.7474 10.008 38.7474 12.6096V14.6137C38.7474 14.9598 39.0277 15.2401 39.3737 15.2401ZM33.4029 2.67227H29.311V1.25258H33.4029V2.67227ZM18.7056 13.9457V14.0713C18.7056 14.0924 18.6346 14.119 18.5928 14.1526L10.6785 20.5133L2.45352 13.9458L18.7056 13.9457ZM1.25258 14.5807L10.2768 21.7834C10.5029 21.9642 10.8227 21.9642 11.0488 21.7834L18.7056 15.6497V26.0543H6.0125H1.25258V14.5807ZM6.47508 27.3069H18.5257L16.2389 34.7391H4.18828L6.47508 27.3069ZM26.7223 27.3069V38.7473H24.6347V33.2637C24.6347 32.9177 24.3544 32.6373 24.0084 32.6373C23.6624 32.6373 23.382 32.9177 23.382 33.2637V38.7077C23.382 38.7067 23.3962 38.7473 23.382 38.7473H17.286V35.6158C17.286 35.5666 17.3006 35.5398 17.2899 35.4938L19.8363 27.3068H23.382V30.7028C23.382 31.0488 23.6623 31.3291 24.0084 31.3291C24.3543 31.3291 24.6347 31.0488 24.6347 30.7028V27.3068H26.7223V27.3069ZM18.7056 12.6096V12.6931H6.59711V12.6096C6.59711 10.008 8.75547 7.9332 11.357 7.9332H14.0293C16.6308 7.9332 18.7056 10.008 18.7056 12.6096ZM30.7516 13.9457C30.7516 15.0739 29.8442 15.9916 28.7161 15.9916C27.588 15.9916 26.6545 15.0739 26.6545 13.9457C26.6545 13.0359 27.3069 12.2634 28.0584 11.9982V13.9457C28.0584 14.2916 28.3388 14.572 28.6848 14.572C29.0307 14.572 29.3111 14.2917 29.3111 13.9457V11.9982C30.1462 12.2634 30.7516 13.036 30.7516 13.9457Z" fill="black"/>
<path d="M24.7181 23.382C24.3722 23.382 24.0918 23.6623 24.0918 24.0083C24.0918 24.3543 24.3721 24.6347 24.7181 24.6347H33.4029C33.7488 24.6347 34.0292 24.3544 34.0292 24.0083C34.0292 23.6624 33.7489 23.382 33.4029 23.382H24.7181Z" fill="black"/>
<path d="M35.4071 23.382C35.0612 23.382 34.7808 23.6623 34.7808 24.0083C34.7808 24.3543 35.0611 24.6347 35.4071 24.6347H36.7432C37.0891 24.6347 37.3695 24.3544 37.3695 24.0083C37.3695 23.6624 37.0892 23.382 36.7432 23.382H35.4071Z" fill="black"/>
</g>
<path d="M67.82 27.48H84.58V29.64H67.82V27.48ZM74.84 23.52H77.5V28H74.84V23.52ZM69.58 14.44H72.22V17.28H80.12V14.44H82.76V24.08H69.58V14.44ZM72.22 19.36V21.96H80.12V19.36H72.22ZM88.2584 18.92H101.158V20.72H88.2584V18.92ZM88.2584 13.64H101.018V15.44H90.8984V19.78H88.2584V13.64ZM90.1584 16.3H100.598V18.02H90.1584V16.3ZM86.2384 21.54H102.918V23.5H86.2384V21.54ZM88.1184 24.36H100.918V28.86H90.7584V30.72H88.1384V27.1H98.2984V26.22H88.1184V24.36ZM88.1384 29.8H101.398V31.66H88.1384V29.8Z" fill="black"/>
<defs>
<clipPath id="clip0_152_194">
<rect width="40" height="40" fill="white"/>
</clipPath>
</defs>
</svg>
