<svg width="32" height="32" viewBox="0 0 32 32" fill="none" xmlns="http://www.w3.org/2000/svg">
<g id="Frame">
<g id="SVGRepo_iconCarrier">
<g id="Page-1">
<g id="Icon-Set">
<path id="mail" fill-rule="evenodd" clip-rule="evenodd" d="M30 24C30 24.203 29.961 24.395 29.905 24.578L21 15L30 8V24ZM3.556 25.946L12.58 16.33L16 18.915L19.272 16.314L28.444 25.946C28.301 25.979 3.699 25.979 3.556 25.946ZM2 24V8L11 15L2.095 24.578C2.039 24.395 2 24.203 2 24ZM29 6L16 16L3 6H29ZM28 4H4C1.791 4 0 5.791 0 8V24C0 26.209 1.791 28 4 28H28C30.209 28 32 26.209 32 24V8C32 5.791 30.209 4 28 4Z" fill="black"/>
</g>
</g>
</g>
</g>
</svg>
