<svg width="20" height="20" viewBox="0 0 20 20" fill="none" xmlns="http://www.w3.org/2000/svg">
<g id="Capa_1" clip-path="url(#clip0_6_3289)">
<g id="SVGRepo_iconCarrier">
<g id="Group">
<g id="Group_2">
<path id="Vector" d="M0 1.77448V15.2228H9.65517H19.3103V1.77448H0Z" fill="#DCD6CD"/>
<path id="Vector_2" d="M10.6776 9.39757C10.1131 9.90171 9.19759 9.90171 8.63276 9.39757L7.9131 8.76205C5.66172 10.7717 0 15.2227 0 15.2227H7.45069H11.86H19.3103C19.3103 15.2227 13.6486 10.7714 11.3972 8.76205L10.6776 9.39757Z" fill="#E8E3D9"/>
<path id="Vector_3" d="M0 1.77448L8.63276 9.39758C9.19724 9.90172 10.1128 9.90172 10.6776 9.39758L19.3103 1.77448H0Z" fill="#EFEBDE"/>
</g>
<g id="Group_3">
<path id="Vector_4" d="M12.609 14.9521L12.6065 14.9545L11.921 17.4683L13.5231 15.8659L12.609 14.9521Z" fill="#EDDCC7"/>
<path id="Vector_5" d="M19.2469 10.1421L18.8169 9.71206C18.5496 9.44482 18.1162 9.44482 17.8489 9.71206L16.6138 10.9472L17.5279 11.8614L19.2469 10.1421Z" fill="#D75A4A"/>
<path id="Vector_6" d="M17.5279 11.8611L16.6138 10.947L12.6091 14.9516L13.5233 15.8657L17.5279 11.8611Z" fill="#F29C21"/>
<path id="Vector_7" d="M14.5573 16.9052L14.5597 16.9027L13.5232 15.8658L11.9211 17.4683L11.8749 17.6365L14.5573 16.9052Z" fill="#D6C4B1"/>
<path id="Vector_8" d="M18.5645 12.8979L19.7997 11.6627C20.0669 11.3955 20.0669 10.962 19.7997 10.6948L19.2473 10.1424L17.5283 11.8614L18.5645 12.8979Z" fill="#A34740"/>
<path id="Vector_9" d="M13.5231 15.8665L14.5596 16.903L18.5642 12.8984L17.5277 11.8619L13.5231 15.8665Z" fill="#E18C25"/>
<path id="Vector_10" d="M11.631 18.2255C11.5428 18.2255 11.4545 18.1917 11.3873 18.1245C11.2524 17.9896 11.2524 17.7717 11.3873 17.6369L12.1483 16.8758C12.2831 16.741 12.501 16.741 12.6359 16.8758C12.7707 17.0107 12.7707 17.2286 12.6359 17.3634L11.8748 18.1245C11.8076 18.1917 11.7193 18.2255 11.631 18.2255Z" fill="#5E5E5E"/>
</g>
</g>
</g>
</g>
<defs>
<clipPath id="clip0_6_3289">
<rect width="20" height="20" fill="white"/>
</clipPath>
</defs>
</svg>
